<svg width="18" height="16" viewBox="0 0 18 16" fill="none" xmlns="http://www.w3.org/2000/svg">
<g id="Layer_1" clip-path="url(#clip0_617_1203)">
<path id="Vector" d="M13.9337 0H4.78628C2.53977 0 0.719971 1.79646 0.719971 4.01239V9.53274C0.719971 11.7487 2.53977 13.5451 4.78628 13.5451V15.6035C4.78628 15.9558 5.21657 16.131 5.46758 15.8832L7.836 13.5451H13.9337C16.1802 13.5451 18 11.7487 18 9.53274V4.01239C18 1.79646 16.1802 0 13.9337 0ZM4.53168 8.02655C3.83066 8.02655 3.26231 7.46549 3.26231 6.77168C3.26231 6.07788 3.83066 5.51858 4.53168 5.51858C5.23271 5.51858 5.80285 6.07965 5.80285 6.77168C5.80285 7.46372 5.2345 8.02655 4.53168 8.02655ZM9.35997 8.02655C8.65895 8.02655 8.0888 7.46549 8.0888 6.77168C8.0888 6.07788 8.65895 5.51858 9.35997 5.51858C10.061 5.51858 10.6311 6.07965 10.6311 6.77168C10.6311 7.46372 10.061 8.02655 9.35997 8.02655ZM14.1883 8.02655C13.4872 8.02655 12.9171 7.46549 12.9171 6.77168C12.9171 6.07788 13.4872 5.51858 14.1883 5.51858C14.8893 5.51858 15.4594 6.07965 15.4594 6.77168C15.4594 7.46372 14.8893 8.02655 14.1883 8.02655Z" fill="#939393"/>
</g>
<defs>
<clipPath id="clip0_617_1203">
<rect width="17.28" height="16" fill="white" transform="translate(0.719971)"/>
</clipPath>
</defs>
</svg>
