<svg width="13" height="20" viewBox="0 0 13 20" fill="none" xmlns="http://www.w3.org/2000/svg">
<g id="Layer_1" clip-path="url(#clip0_215_1706)">
<path id="Vector" d="M12.3182 0.561465C12.3182 0.252792 12.0764 0.00663601 11.7817 0.00663601H9.09539C6.28063 -0.137932 3.88148 2.09701 3.7228 5.00791V8.00867H1.0365C0.738026 8.00867 0.5 8.25873 0.5 8.5635V11.447C0.5 11.7557 0.741804 12.0019 1.0365 12.0019H3.7228V19.4452C3.7228 19.7499 3.9646 20 4.2593 20H7.4821C7.78057 20 8.0186 19.7499 8.0186 19.4452V12.0058H10.8334C11.0789 12.0097 11.2943 11.8417 11.3585 11.5955L12.1331 8.70807C12.2086 8.41112 12.0386 8.10635 11.7552 8.02821L11.6192 8.00867H8.0186V5.00791C8.07527 4.43745 8.53999 4.00375 9.09161 4.00765H11.7779C12.0764 4.00765 12.3144 3.75759 12.3144 3.45282V0.561465H12.3182Z" fill="#CCD6E1"/>
</g>
<defs>
<clipPath id="clip0_215_1706">
<rect width="11.5385" height="20" fill="white" transform="translate(0.5)"/>
</clipPath>
</defs>
</svg>
