<svg width="18" height="16" viewBox="0 0 18 16" fill="none" xmlns="http://www.w3.org/2000/svg">
<g id="Layer_1" clip-path="url(#clip0_617_1198)">
<path id="Vector" d="M17.6588 6.66265C17.5472 5.89866 16.8676 5.37908 16.0804 5.37678C14.6817 5.37217 13.2838 5.37524 11.8851 5.37524C11.8138 5.37524 11.7433 5.37524 11.6488 5.37524C11.6775 5.29684 11.6984 5.23689 11.7216 5.17848C12.0192 4.43601 12.3191 3.69431 12.6158 2.95184C12.7762 2.5514 12.8057 2.13943 12.6724 1.729C12.4632 1.08338 12.0657 0.612225 11.3536 0.515382C10.715 0.42853 10.2447 0.719061 9.89057 1.23633C9.60696 1.6506 9.30708 2.05489 9.01185 2.46071C7.85727 4.04864 6.78482 5.7019 5.29937 7.02619C5.2087 7.1069 5.16299 7.27983 5.16221 7.41049C5.15369 9.42269 5.15834 11.4357 5.15369 13.4478C5.15369 13.6323 5.21413 13.7714 5.34353 13.8975C5.62947 14.1749 5.90765 14.4609 6.19281 14.7406C6.70733 15.2448 7.32724 15.4985 8.05176 15.4985C9.71234 15.4985 11.3737 15.5039 13.0343 15.4962C13.9417 15.4923 14.6096 15.0742 14.9831 14.2549C15.8192 12.4195 16.6329 10.5741 17.4597 8.73402C17.7603 8.06457 17.7603 7.35823 17.6588 6.66265Z" fill="#939393"/>
<path id="Vector_2" d="M3.81784 10.7024C3.81784 9.75242 3.83566 8.80166 3.81242 7.85167C3.79072 6.97086 2.89108 6.32523 2.02553 6.5366C1.30798 6.71184 0.88567 7.27138 0.884895 8.06304C0.88257 9.69708 0.88412 11.3304 0.884895 12.9644C0.884895 13.1658 0.881795 13.3687 0.897293 13.5693C0.967033 14.4555 1.84963 15.0742 2.71363 14.8475C3.39398 14.6692 3.81629 14.1258 3.82249 13.3971C3.82946 12.4986 3.82404 11.6009 3.82404 10.7024C3.82171 10.7024 3.82016 10.7024 3.81784 10.7024Z" fill="#939393"/>
</g>
<defs>
<clipPath id="clip0_617_1198">
<rect width="16.8367" height="15" fill="white" transform="translate(0.883301 0.5)"/>
</clipPath>
</defs>
</svg>
