<svg width="18" height="17" viewBox="0 0 18 17" fill="none" xmlns="http://www.w3.org/2000/svg">
<g id="Elements" clip-path="url(#clip0_215_1715)">
<path id="Vector" d="M12.296 17H5.70615C2.83713 17 0.502199 14.6651 0.502199 11.7961V5.20615C0.499992 2.33493 2.83493 0 5.70394 0H12.2938C15.1628 0 17.4978 2.33493 17.4978 5.20395V11.7938C17.4978 14.6629 15.1628 16.9978 12.2938 16.9978L12.296 17ZM5.70394 1.2734C3.53673 1.2734 1.77118 3.03674 1.77118 5.20615V11.7961C1.77118 13.9633 3.53452 15.7288 5.70394 15.7288H12.2938C14.461 15.7288 16.2266 13.9655 16.2266 11.7961V5.20615C16.2266 3.03895 14.4633 1.2734 12.2938 1.2734H5.70394Z" fill="#CCD6E1"/>
<path id="Vector_2" d="M8.99887 12.8002C6.62863 12.8002 4.69977 10.8714 4.69977 8.50113C4.69977 6.13089 6.62863 4.20203 8.99887 4.20203C11.3691 4.20203 13.298 6.13089 13.298 8.50113C13.298 10.8714 11.3691 12.8002 8.99887 12.8002ZM8.99887 5.50412C7.34588 5.50412 6.00186 6.84814 6.00186 8.50113C6.00186 10.1541 7.34588 11.4981 8.99887 11.4981C10.6519 11.4981 11.9959 10.1541 11.9959 8.50113C11.9959 6.84814 10.6519 5.50412 8.99887 5.50412Z" fill="#CCD6E1"/>
<path id="Vector_3" d="M14.887 3.73195C14.887 4.34989 14.386 4.85087 13.7681 4.85087C13.1501 4.85087 12.6492 4.34989 12.6492 3.73195C12.6492 3.11401 13.1501 2.61304 13.7681 2.61304C14.386 2.61304 14.887 3.11401 14.887 3.73195Z" fill="#CCD6E1"/>
</g>
<defs>
<clipPath id="clip0_215_1715">
<rect width="17" height="17" fill="white" transform="translate(0.5)"/>
</clipPath>
</defs>
</svg>
