<svg width="60" height="32" viewBox="0 0 60 32" fill="none" xmlns="http://www.w3.org/2000/svg">
<rect width="60" height="32" fill="#1E1E1E"/>
<g id="Main page" clip-path="url(#clip0_0_1)">
<rect width="1440" height="4186" transform="translate(-90 -34)" fill="white"/>
<g id="Frame 1">
<g id="Layer_1" clip-path="url(#clip1_0_1)">
<path id="Vector" d="M33.1301 19.8741L26.4175 26.6443C23.617 29.4689 19.7483 31.2157 15.475 31.2157C6.92831 31.2157 0 24.2279 0 15.6079C0 6.9878 6.92831 0 15.475 0C19.7483 0 23.617 1.74683 26.4175 4.57141L21.5003 9.53078C19.9583 7.97553 17.8283 7.01331 15.475 7.01331C10.7688 7.01331 6.9536 10.8612 6.9536 15.6079C6.9536 20.3545 10.7688 24.2024 15.475 24.2024C17.8283 24.2024 19.9583 23.2402 21.5003 21.6849L28.2129 14.9147L33.1301 19.8741Z" fill="#007BFF"/>
<path id="Vector_2" d="M55.0829 21.98L60.0001 26.9394C57.1995 29.7639 53.3309 31.5108 49.0576 31.5108C41.5943 31.5108 35.3651 26.1822 33.9062 19.0914L38.074 14.8882L33.1569 9.92884L37.3309 5.71844C40.1687 2.39759 44.3695 0.295044 49.0576 0.295044C53.3309 0.295044 57.1995 2.04187 60.0001 4.86645L55.0829 9.82583C53.5409 8.27058 51.4109 7.30835 49.0576 7.30835C44.3514 7.30835 40.5362 11.1563 40.5362 15.9029C40.5362 20.6495 44.3514 24.4975 49.0576 24.4975C51.4109 24.4975 53.5409 23.5352 55.0829 21.98Z" fill="#007BFF"/>
<path id="Vector_3" d="M38.0739 14.8882L33.9061 19.0914L33.13 19.8741L28.2129 14.9147L33.1568 9.92883L38.0739 14.8882Z" fill="#F8FCFF"/>
</g>
</g>
</g>
<defs>
<clipPath id="clip0_0_1">
<rect width="1440" height="4186" fill="white" transform="translate(-90 -34)"/>
</clipPath>
<clipPath id="clip1_0_1">
<rect width="60" height="31.5108" fill="white"/>
</clipPath>
</defs>
</svg>
